<svg viewBox="0 0 215 153" fill="none" xmlns="http://www.w3.org/2000/svg" aria-hidden="true" class="bqfGyf"><path d="M80.806 119.344H11.8018V133.649H80.806V119.344Z" fill="#DADCE0"></path><path d="M43.611 57.4085C43.1061 55.6413 42.3488 53.8741 41.0865 52.5277C39.8242 51.1813 37.7204 50.4239 36.0374 51.1813C34.4385 51.8545 33.4287 53.6217 33.4287 55.3889C33.4287 57.1561 34.2702 58.8391 35.3642 60.1855C36.374 61.3636 37.6363 62.4576 39.0669 63.0467C40.4974 63.6357 42.1805 63.804 43.6952 63.2991" fill="#1E8E3E" class="P5VoX"></path><path d="M43.9484 57.4085C44.4533 55.6413 45.2107 53.8741 46.473 52.5277C47.7352 51.1813 49.839 50.4239 51.522 51.1813C53.1209 51.8545 54.1307 53.6217 54.1307 55.3889C54.1307 57.1561 53.2892 58.8391 52.1953 60.1855C51.1854 61.3636 49.9232 62.4576 48.4926 63.0467C47.062 63.6357 45.379 63.804 43.8643 63.2991" fill="#1E8E3E" class="P5VoX"></path><path d="M42.9382 41.5882C42.4333 39.821 41.6759 38.0538 40.4136 36.7074C39.1514 35.361 37.0476 34.6036 35.3646 35.361C33.7657 36.0342 32.7559 37.8014 32.7559 39.5686C32.7559 41.3357 33.5974 43.0188 34.6913 44.3652C35.7012 45.5433 36.9634 46.6373 38.394 47.2263C39.8246 47.8154 41.5076 47.9837 43.0223 47.4788" fill="#1E8E3E" class="P5VoX"></path><path d="M43.2746 41.5882C43.7795 39.821 44.5369 38.0538 45.7991 36.7074C47.0614 35.361 49.1652 34.6036 50.8482 35.361C52.4471 36.0342 53.4569 37.8014 53.4569 39.5686C53.4569 41.3357 52.6154 43.0188 51.5214 44.3652C50.5116 45.5433 49.2493 46.6373 47.8188 47.2263C46.3882 47.8154 44.7052 47.9837 43.1904 47.4788" fill="#1E8E3E" class="P5VoX"></path><path d="M42.5176 34.0986C42.5176 34.4352 43.3591 59.4843 43.7798 71.9668" stroke="#5F6368" stroke-width="2" stroke-linecap="round" stroke-linejoin="round"></path><path d="M65.4909 103.692H21.3955V76.1741C21.3955 73.3971 23.6676 71.125 26.4446 71.125H60.4418C63.2188 71.125 65.4909 73.3971 65.4909 76.1741V103.692Z" fill="#DADCE0"></path><path d="M16.3466 105.122C23.0787 105.122 29.895 105.122 36.6271 105.122C47.3144 105.122 58.0857 105.122 68.773 105.122C71.2134 105.122 73.7379 105.122 76.1783 105.122C77.7772 105.122 77.7772 102.598 76.1783 102.598C69.4462 102.598 62.6299 102.598 55.8978 102.598C45.2106 102.598 34.4392 102.598 23.7519 102.598C21.3116 102.598 18.787 102.598 16.3466 102.598C14.7477 102.598 14.7477 105.122 16.3466 105.122Z" fill="#5F6368"></path><path d="M16.851 113.285C26.276 112.78 35.701 112.696 45.1259 112.612C53.7094 112.527 62.2928 112.527 70.8763 112.527C72.5593 112.527 74.3265 112.527 76.0095 112.527C77.6084 112.527 77.6084 110.003 76.0095 110.003C71.1287 110.003 66.1638 110.003 61.283 110.003C51.4373 110.003 41.5916 110.087 31.7458 110.255C26.7809 110.34 21.816 110.508 16.851 110.76C15.2522 110.844 15.168 113.369 16.851 113.285Z" fill="#5F6368"></path><path d="M17.4404 120.607C32.5035 120.775 47.5666 119.849 62.7138 119.765C67.0897 119.681 71.5498 119.765 75.9256 119.849C77.5245 119.934 77.5245 117.409 75.9256 117.325C60.7784 116.904 45.7153 117.746 30.568 117.998C26.1921 118.082 21.8162 118.082 17.4404 118.082C15.8415 118.082 15.8415 120.607 17.4404 120.607Z" fill="#5F6368"></path><path d="M52.6152 150.648H79.9645V132.556H52.6152C56.5704 137.941 56.5704 145.263 52.6152 150.648Z" fill="#5F6368"></path><path d="M5.49115 135.585C16.8516 134.996 28.212 134.744 39.5725 134.744C44.9582 134.744 50.428 134.828 55.8137 134.996C57.4126 135.08 57.4126 132.556 55.8137 132.472C40.2457 131.967 24.5935 132.219 8.94136 132.892C7.76324 132.977 6.58512 132.977 5.49115 133.061C3.89227 133.145 3.89227 135.669 5.49115 135.585Z" fill="#5F6368"></path><path d="M5.49115 143.159C16.8516 142.57 28.212 142.318 39.5725 142.318C44.9582 142.318 50.428 142.402 55.8137 142.57C57.4126 142.655 57.4126 140.13 55.8137 140.046C40.2457 139.541 24.5935 139.793 8.94136 140.467C7.76324 140.551 6.58512 140.551 5.49115 140.635C3.89227 140.719 3.89227 143.244 5.49115 143.159Z" fill="#5F6368"></path><path d="M4.98563 151.49C19.8804 150.732 34.7752 150.564 49.6701 150.564C54.5508 150.564 59.4316 150.564 64.3966 150.564C65.9954 150.564 65.9954 148.039 64.3966 148.039C48.8285 148.039 33.2605 147.955 17.6925 148.46C13.4849 148.628 9.27736 148.797 5.06978 148.965C3.38676 149.049 3.3026 151.574 4.98563 151.49Z" fill="#5F6368"></path><path d="M175.729 92.0794L175.056 86.6096C175.056 86.6096 166.22 34.8564 124.565 34.8564C82.9102 34.8564 77.4404 86.6096 77.4404 86.6096L76.7672 92.0794C74.4109 109.92 74.4109 128.012 76.7672 145.852L76.9355 146.946C77.2721 149.471 79.3759 151.322 81.9846 151.322H170.764C173.289 151.322 175.477 149.471 175.813 146.946L175.982 145.852C178.086 128.012 178.086 109.92 175.729 92.0794Z" fill="white"></path><path d="M146.444 112.612L94.2705 127.086V112.612H146.444Z" fill="#5F6368"></path><path d="M2.96634 120.69H26.108C21.9004 115.473 21.8163 108.067 25.9397 102.85L26.108 102.598H2.96634C-0.98878 107.983 -0.98878 115.22 2.96634 120.69Z" fill="#5F6368"></path><path d="M119.516 87.3667C122.304 87.3667 124.565 85.1062 124.565 82.3176C124.565 79.5291 122.304 77.2686 119.516 77.2686C116.727 77.2686 114.467 79.5291 114.467 82.3176C114.467 85.1062 116.727 87.3667 119.516 87.3667Z" fill="#5F6368"></path><path d="M129.53 35.5293L129.614 36.8757L85.8555 63.8042V54.5475L94.2706 44.5335L129.53 35.5293Z" fill="#5F6368"></path><path d="M66.2482 77.016L21.3955 76.8477V91.3217L66.2482 77.016Z" fill="#5F6368"></path><path d="M174.215 33.6782L158.226 52.1916L142.237 39.5688L148.128 17.6895L159.909 21.897L174.215 33.6782Z" fill="#5F6368"></path><path d="M66.0795 76.1748L20.6377 77.0163" stroke="#5F6368" stroke-width="2" stroke-linecap="round" stroke-linejoin="round"></path><path d="M131.803 2.2048C131.634 3.04631 131.719 3.88782 131.887 4.64519C132.055 5.40255 132.392 6.24407 132.981 6.74897C133.317 7.08558 133.991 7.16973 134.327 6.74897C134.664 6.41237 134.748 5.73916 134.327 5.40255C134.243 5.3184 134.243 5.3184 134.159 5.23425L134.075 5.1501C134.075 5.1501 134.243 5.40255 134.159 5.23425C134.075 5.1501 133.991 4.98179 133.906 4.81349C133.906 4.81349 133.906 4.72934 133.822 4.72934C133.738 4.64519 133.906 4.98179 133.822 4.81349C133.822 4.72934 133.738 4.64519 133.738 4.56104C133.654 4.39273 133.654 4.22443 133.57 4.05613C133.57 3.88782 133.486 3.71952 133.486 3.55122C133.57 3.88782 133.486 3.55122 133.486 3.46707C133.486 3.38292 133.486 3.29876 133.486 3.21461C133.486 3.04631 133.486 2.87801 133.486 2.7097V2.62555C133.486 2.45725 133.486 2.79386 133.486 2.79386C133.486 2.7097 133.486 2.62555 133.57 2.5414C133.654 2.03649 133.402 1.53158 132.897 1.36328C132.476 1.44743 131.887 1.69989 131.803 2.2048Z" fill="#5F6368"></path><path d="M82.0104 151.07H119.937H168.601C171.76 151.07 174.377 148.625 174.586 145.473C174.984 139.449 175.602 130.075 176.318 119.092C177.58 99.7372 173.373 82.4862 168.745 69.8635C164.116 57.2407 151.494 37.4652 124.144 36.6237C96.7951 35.7822 85.4347 55.5577 81.2271 66.9182C77.0195 78.2786 75.3365 88.7976 74.0742 108.573C73.2399 121.643 74.8371 136.953 76.2085 146.152C76.6349 149.013 79.1181 151.07 82.0104 151.07Z" stroke="#5F6368" stroke-width="2" stroke-linecap="round" stroke-linejoin="round"></path><path d="M85.4348 40.4945C80.6382 46.7217 79.8808 58.587 80.6382 60.775C81.3955 62.9629 83.6676 64.7301 85.8555 64.0569C87.5386 63.552 96.122 47.6473 100.077 40.3262" fill="#CEEAD6" class="rTGbBf"></path><path d="M127.679 3.97279C127.679 4.8143 127.931 5.73997 128.099 6.49733C128.184 6.83394 128.268 7.2547 128.436 7.5913C128.52 7.7596 128.604 7.92791 128.689 8.09621C128.941 8.43282 129.193 8.60112 129.614 8.68527C130.119 8.76942 130.624 8.18036 130.54 7.7596C130.54 7.17054 130.119 6.83394 129.614 6.83394C129.951 6.83394 130.203 7.00224 130.372 7.2547L130.287 7.17054V7.08639C130.203 7.00224 130.372 7.33885 130.372 7.17054C130.372 7.08639 130.287 7.08639 130.287 7.00224C130.203 6.66564 130.119 6.32903 130.035 5.99242C129.951 5.57167 129.867 5.23506 129.782 4.8143C129.782 4.73015 129.782 4.646 129.782 4.56185C129.782 4.30939 129.782 4.8143 129.782 4.646V4.56185C129.782 4.39355 129.782 4.30939 129.782 4.14109C129.782 3.63618 129.362 3.13127 128.857 3.21543C128.099 3.04712 127.679 3.46788 127.679 3.97279Z" fill="#5F6368"></path><path d="M172.953 149.807C176.319 147.563 184.734 140.55 189.783 133.818C194.832 127.086 198.058 121.476 199.04 119.512C198.759 110.957 197.104 89.8069 192.728 73.6498C187.258 53.4535 180.526 39.5685 171.27 31.1533" stroke="#5F6368" stroke-width="2" stroke-linecap="round" stroke-linejoin="round"></path><path d="M144.761 10.7888C147.959 6.74953 151.072 4.81405 154.438 5.31896C162.433 6.58123 171.016 17.3526 175.308 23.7481C176.486 25.5153 177.58 28.6289 176.486 30.3961C175.308 32.4999 172.194 32.4157 169.838 31.7425C163.106 29.9753 156.963 26.441 151.998 21.5602C149.558 28.7131 133.316 59.9332 125.07 63.8042C116.065 68.0118 121.704 41.5041 129.446 35.4452C129.446 35.4452 120.273 38.3063 113.204 40.915C105.57 43.7325 92.9476 48.0683 86.1917 40.915C84.7611 39.4003 83.7513 37.2124 84.5086 35.361C89.6419 21.3077 128.772 4.05669 144.761 10.7888Z" fill="#CEEAD6" class="rTGbBf"></path><path d="M85.8096 36.9709C88.0922 35.1374 88.9754 32.4468 87.7822 30.9613C86.5889 29.4757 83.7712 29.7578 81.4886 31.5913C79.2059 33.4248 78.3228 36.1154 79.516 37.6009C80.7092 39.0864 83.527 38.8044 85.8096 36.9709Z" fill="#5F6368"></path><path d="M83.752 37.0442C84.1727 39.5688 87.3705 44.5337 96.7954 44.1971C106.22 43.8605 125.126 38.1662 133.401 34.9404" stroke="#5F6368" stroke-width="2" stroke-linecap="round" stroke-linejoin="round"></path><path d="M125.911 12.5559C125.827 10.368 124.649 8.26422 123.05 6.74949C121.451 5.23477 119.348 4.22495 117.328 3.38343C110.596 0.690587 103.275 -0.487533 96.0376 0.185678C93.3448 0.438133 90.3153 1.1955 89.2213 3.63589C88.0432 6.16043 89.8945 9.18988 92.2508 10.7888C95.3644 12.8084 99.3195 13.145 103.022 13.5658C106.725 13.9865 110.68 14.6597 113.457 17.1843" fill="#CEEAD6" class="rTGbBf"></path><path d="M123.219 19.7931C124.818 19.7931 124.818 17.2686 123.219 17.2686C121.62 17.2686 121.62 19.7931 123.219 19.7931Z" fill="#5F6368"></path><path d="M139.208 18.9513C140.807 18.9513 140.807 16.4268 139.208 16.4268C137.609 16.4268 137.609 18.9513 139.208 18.9513Z" fill="#5F6368"></path><path d="M128.772 4.22502L129.614 7.59108M132.559 2.54199C132.419 3.103 132.391 4.56163 133.401 5.90805" stroke="#5F6368" stroke-width="2" stroke-linecap="round" stroke-linejoin="round"></path><path d="M181.367 43.776C188.801 42.654 206.697 48.6569 212.082 68.18C216.957 85.8518 211.662 105.207 198.618 109.414" stroke="#5F6368" stroke-width="2" stroke-linecap="round" stroke-linejoin="round"></path><path d="M94.4287 106.157C94.4287 103.396 96.6673 101.157 99.4287 101.157H141.286C144.047 101.157 146.286 103.396 146.286 106.157V132.867C146.286 135.628 144.047 137.867 141.286 137.867H99.4287C96.6673 137.867 94.4287 135.628 94.4287 132.867V106.157Z" stroke="#5F6368" stroke-width="2" stroke-linecap="round" stroke-linejoin="round"></path><line x1="94.2705" y1="111.78" x2="146.444" y2="111.78" stroke="#5F6368" stroke-width="2"></line></svg>